<mxfile host="app.diagrams.net" modified="2024-05-01T13:29:32.106Z" agent="Mozilla/5.0 (Windows NT 10.0; Win64; x64) AppleWebKit/537.36 (KHTML, like Gecko) Chrome/122.0.0.0 YaBrowser/24.4.0.0 Safari/537.36" etag="PXP_pcz3sYnbpQxHDOpk" version="24.3.1" type="github">
  <diagram name="Страница — 1" id="6BTomwEyEI26oJtq-LtX">
    <mxGraphModel dx="910" dy="500" grid="0" gridSize="10" guides="1" tooltips="1" connect="1" arrows="1" fold="1" page="1" pageScale="1" pageWidth="827" pageHeight="1169" math="0" shadow="0">
      <root>
        <mxCell id="0" />
        <mxCell id="1" parent="0" />
      </root>
    </mxGraphModel>
  </diagram>
</mxfile>
